<svg width="60" height="60" viewBox="0 0 60 60" fill="none" xmlns="http://www.w3.org/2000/svg">
<g filter="url(#filter0_dd_25498_597)">
<rect x="14" y="9" width="32" height="32" rx="11" fill="#FF0A0A"/>
<rect x="13.5" y="8.5" width="33" height="33" rx="11.5" stroke="white"/>
</g>
<g clip-path="url(#clip0_25498_597)">
<path d="M24.3879 16.8589C24.0655 16.5462 24.2869 16 24.736 16H36.0609C36.337 16 36.5609 16.2239 36.5609 16.5V21.8333C36.5609 22.1095 36.337 22.3333 36.0609 22.3333H30.0317L24.3879 16.8589ZM23.5024 22.8333C23.5024 22.5572 23.7263 22.3333 24.0024 22.3333H30.0317L35.6754 27.8078C35.9978 28.1205 35.7764 28.6667 35.3273 28.6667H30.5317C30.2555 28.6667 30.0317 28.8905 30.0317 29.1667V33.8184C30.0317 34.2602 29.5006 34.4849 29.1835 34.1773L23.6543 28.814C23.5572 28.7198 23.5024 28.5903 23.5024 28.4551V22.8333Z" fill="white"/>
</g>
<defs>
<filter id="filter0_dd_25498_597" x="0" y="0" width="60" height="60" filterUnits="userSpaceOnUse" color-interpolation-filters="sRGB">
<feFlood flood-opacity="0" result="BackgroundImageFix"/>
<feColorMatrix in="SourceAlpha" type="matrix" values="0 0 0 0 0 0 0 0 0 0 0 0 0 0 0 0 0 0 127 0" result="hardAlpha"/>
<feOffset dy="2"/>
<feGaussianBlur stdDeviation="2"/>
<feColorMatrix type="matrix" values="0 0 0 0 0 0 0 0 0 0 0 0 0 0 0 0 0 0 0.02 0"/>
<feBlend mode="normal" in2="BackgroundImageFix" result="effect1_dropShadow_25498_597"/>
<feColorMatrix in="SourceAlpha" type="matrix" values="0 0 0 0 0 0 0 0 0 0 0 0 0 0 0 0 0 0 127 0" result="hardAlpha"/>
<feOffset dy="5"/>
<feGaussianBlur stdDeviation="6.5"/>
<feComposite in2="hardAlpha" operator="out"/>
<feColorMatrix type="matrix" values="0 0 0 0 0 0 0 0 0 0 0 0 0 0 0 0 0 0 0.05 0"/>
<feBlend mode="normal" in2="effect1_dropShadow_25498_597" result="effect2_dropShadow_25498_597"/>
<feBlend mode="normal" in="SourceGraphic" in2="effect2_dropShadow_25498_597" result="shape"/>
</filter>
<clipPath id="clip0_25498_597">
<rect width="13.0625" height="19" fill="white" transform="translate(23.5 16)"/>
</clipPath>
</defs>
</svg>
